<mxfile host="Electron" modified="2024-06-13T14:02:06.905Z" agent="Mozilla/5.0 (Windows NT 10.0; Win64; x64) AppleWebKit/537.36 (KHTML, like Gecko) draw.io/24.5.3 Chrome/124.0.6367.207 Electron/30.0.6 Safari/537.36" etag="3lmNQv3ysctHS_ZtsYmM" version="24.5.3" type="device">
  <diagram name="Page-1" id="_1N3PZ7AXopFidvdtTNf">
    <mxGraphModel dx="1687" dy="984" grid="1" gridSize="10" guides="1" tooltips="1" connect="1" arrows="1" fold="1" page="1" pageScale="1" pageWidth="850" pageHeight="1100" math="0" shadow="0">
      <root>
        <mxCell id="0" />
        <mxCell id="1" parent="0" />
        <mxCell id="sKmxfyJHuq8jnyLTXOs7-5" value="giveAnswer" style="edgeStyle=orthogonalEdgeStyle;rounded=0;orthogonalLoop=1;jettySize=auto;html=1;entryX=0;entryY=0.5;entryDx=0;entryDy=0;" edge="1" parent="1" source="sKmxfyJHuq8jnyLTXOs7-3" target="sKmxfyJHuq8jnyLTXOs7-11">
          <mxGeometry relative="1" as="geometry">
            <mxPoint x="240" y="630" as="targetPoint" />
          </mxGeometry>
        </mxCell>
        <mxCell id="sKmxfyJHuq8jnyLTXOs7-7" value="showAnswer" style="edgeStyle=orthogonalEdgeStyle;rounded=0;orthogonalLoop=1;jettySize=auto;html=1;" edge="1" parent="1" source="sKmxfyJHuq8jnyLTXOs7-3" target="sKmxfyJHuq8jnyLTXOs7-6">
          <mxGeometry relative="1" as="geometry" />
        </mxCell>
        <mxCell id="sKmxfyJHuq8jnyLTXOs7-9" value="manageFlashCard" style="edgeStyle=orthogonalEdgeStyle;rounded=0;orthogonalLoop=1;jettySize=auto;html=1;" edge="1" parent="1" source="sKmxfyJHuq8jnyLTXOs7-3" target="sKmxfyJHuq8jnyLTXOs7-8">
          <mxGeometry relative="1" as="geometry" />
        </mxCell>
        <mxCell id="sKmxfyJHuq8jnyLTXOs7-3" value="ask a question&lt;br&gt;&lt;font color=&quot;#ffff99&quot;&gt;Main.xaml&lt;/font&gt;" style="rhombus;whiteSpace=wrap;html=1;" vertex="1" parent="1">
          <mxGeometry y="480" width="160" height="160" as="geometry" />
        </mxCell>
        <mxCell id="sKmxfyJHuq8jnyLTXOs7-6" value="" style="whiteSpace=wrap;html=1;" vertex="1" parent="1">
          <mxGeometry x="20" y="770" width="120" height="60" as="geometry" />
        </mxCell>
        <mxCell id="sKmxfyJHuq8jnyLTXOs7-8" value="" style="whiteSpace=wrap;html=1;" vertex="1" parent="1">
          <mxGeometry x="20" y="290" width="120" height="60" as="geometry" />
        </mxCell>
        <mxCell id="sKmxfyJHuq8jnyLTXOs7-13" value="right" style="edgeStyle=orthogonalEdgeStyle;rounded=0;orthogonalLoop=1;jettySize=auto;html=1;" edge="1" parent="1" source="sKmxfyJHuq8jnyLTXOs7-11" target="sKmxfyJHuq8jnyLTXOs7-12">
          <mxGeometry relative="1" as="geometry" />
        </mxCell>
        <mxCell id="sKmxfyJHuq8jnyLTXOs7-15" value="wrong" style="edgeStyle=orthogonalEdgeStyle;rounded=0;orthogonalLoop=1;jettySize=auto;html=1;" edge="1" parent="1" source="sKmxfyJHuq8jnyLTXOs7-11" target="sKmxfyJHuq8jnyLTXOs7-14">
          <mxGeometry relative="1" as="geometry" />
        </mxCell>
        <mxCell id="sKmxfyJHuq8jnyLTXOs7-17" value="skip" style="edgeStyle=orthogonalEdgeStyle;rounded=0;orthogonalLoop=1;jettySize=auto;html=1;" edge="1" parent="1" source="sKmxfyJHuq8jnyLTXOs7-11" target="sKmxfyJHuq8jnyLTXOs7-16">
          <mxGeometry relative="1" as="geometry" />
        </mxCell>
        <mxCell id="sKmxfyJHuq8jnyLTXOs7-11" value="answer the question&lt;div&gt;&lt;font color=&quot;#ffff99&quot;&gt;Main.xaml&lt;/font&gt;&lt;/div&gt;" style="rhombus;whiteSpace=wrap;html=1;" vertex="1" parent="1">
          <mxGeometry x="260" y="480" width="160" height="160" as="geometry" />
        </mxCell>
        <mxCell id="sKmxfyJHuq8jnyLTXOs7-12" value="" style="whiteSpace=wrap;html=1;" vertex="1" parent="1">
          <mxGeometry x="280" y="290" width="120" height="60" as="geometry" />
        </mxCell>
        <mxCell id="sKmxfyJHuq8jnyLTXOs7-14" value="" style="whiteSpace=wrap;html=1;" vertex="1" parent="1">
          <mxGeometry x="520" y="530" width="120" height="60" as="geometry" />
        </mxCell>
        <mxCell id="sKmxfyJHuq8jnyLTXOs7-19" value="" style="edgeStyle=orthogonalEdgeStyle;rounded=0;orthogonalLoop=1;jettySize=auto;html=1;" edge="1" parent="1" source="sKmxfyJHuq8jnyLTXOs7-16" target="sKmxfyJHuq8jnyLTXOs7-18">
          <mxGeometry relative="1" as="geometry" />
        </mxCell>
        <mxCell id="sKmxfyJHuq8jnyLTXOs7-16" value="&lt;div style=&quot;font-size: 8px;&quot;&gt;store last flash card in an app&lt;/div&gt;&lt;div style=&quot;font-size: 8px;&quot;&gt;&lt;font color=&quot;#ffff99&quot;&gt;Main.xaml.cs&lt;/font&gt;&lt;br&gt;&lt;/div&gt;" style="whiteSpace=wrap;html=1;fontSize=8;" vertex="1" parent="1">
          <mxGeometry x="280" y="770" width="120" height="60" as="geometry" />
        </mxCell>
        <mxCell id="sKmxfyJHuq8jnyLTXOs7-21" value="" style="edgeStyle=orthogonalEdgeStyle;rounded=0;orthogonalLoop=1;jettySize=auto;html=1;" edge="1" parent="1" source="sKmxfyJHuq8jnyLTXOs7-18" target="sKmxfyJHuq8jnyLTXOs7-20">
          <mxGeometry relative="1" as="geometry" />
        </mxCell>
        <mxCell id="sKmxfyJHuq8jnyLTXOs7-18" value="&lt;div style=&quot;font-size: 5px;&quot;&gt;ImplementSkipedFlashCardToDb&lt;/div&gt;&lt;div style=&quot;font-size: 5px;&quot;&gt;Main.xaml.cs&lt;/div&gt;&lt;div style=&quot;font-size: 5px;&quot;&gt;&lt;br style=&quot;font-size: 5px;&quot;&gt;&lt;/div&gt;" style="whiteSpace=wrap;html=1;fontSize=5;" vertex="1" parent="1">
          <mxGeometry x="280" y="910" width="120" height="60" as="geometry" />
        </mxCell>
        <mxCell id="sKmxfyJHuq8jnyLTXOs7-20" value="&lt;span style=&quot;color: rgb(240, 240, 240); font-family: Helvetica; font-size: 8px; font-style: normal; font-variant-ligatures: normal; font-variant-caps: normal; font-weight: 400; letter-spacing: normal; orphans: 2; text-align: center; text-indent: 0px; text-transform: none; widows: 2; word-spacing: 0px; -webkit-text-stroke-width: 0px; white-space: normal; background-color: rgb(27, 29, 30); text-decoration-thickness: initial; text-decoration-style: initial; text-decoration-color: initial; float: none; display: inline !important;&quot;&gt;store last flash Card status&amp;nbsp;⏳&lt;/span&gt;&lt;div&gt;&lt;span style=&quot;font-family: Helvetica; font-size: 8px; font-style: normal; font-variant-ligatures: normal; font-variant-caps: normal; font-weight: 400; letter-spacing: normal; orphans: 2; text-align: center; text-indent: 0px; text-transform: none; widows: 2; word-spacing: 0px; -webkit-text-stroke-width: 0px; white-space: normal; background-color: rgb(27, 29, 30); text-decoration-thickness: initial; text-decoration-style: initial; text-decoration-color: initial; float: none; display: inline !important;&quot;&gt;&lt;font color=&quot;#ffff99&quot;&gt;Main.xaml.cs&lt;/font&gt;&lt;br&gt;&lt;/span&gt;&lt;/div&gt;" style="whiteSpace=wrap;html=1;fontSize=8;" vertex="1" parent="1">
          <mxGeometry x="280" y="1050" width="120" height="60" as="geometry" />
        </mxCell>
        <mxCell id="sKmxfyJHuq8jnyLTXOs7-29" value="" style="edgeStyle=orthogonalEdgeStyle;rounded=0;orthogonalLoop=1;jettySize=auto;html=1;" edge="1" parent="1" source="sKmxfyJHuq8jnyLTXOs7-24" target="sKmxfyJHuq8jnyLTXOs7-28">
          <mxGeometry relative="1" as="geometry" />
        </mxCell>
        <mxCell id="sKmxfyJHuq8jnyLTXOs7-24" value="&lt;div style=&quot;&quot;&gt;&lt;font color=&quot;#ffffff&quot;&gt;find&amp;nbsp;&lt;span style=&quot;background-color: initial;&quot;&gt;timeLineAfterSkip&lt;/span&gt;&lt;/font&gt;&lt;/div&gt;&lt;div style=&quot;&quot;&gt;&lt;span style=&quot;color: rgb(255, 255, 153);&quot;&gt;FlashCardOperations.cs&lt;/span&gt;&lt;br style=&quot;font-size: 7px;&quot;&gt;&lt;/div&gt;" style="whiteSpace=wrap;html=1;fontSize=7;" vertex="1" parent="1">
          <mxGeometry x="490" y="980" width="120" height="60" as="geometry" />
        </mxCell>
        <mxCell id="sKmxfyJHuq8jnyLTXOs7-27" style="edgeStyle=orthogonalEdgeStyle;rounded=0;orthogonalLoop=1;jettySize=auto;html=1;entryX=0.006;entryY=0.567;entryDx=0;entryDy=0;entryPerimeter=0;" edge="1" parent="1" source="sKmxfyJHuq8jnyLTXOs7-18" target="sKmxfyJHuq8jnyLTXOs7-24">
          <mxGeometry relative="1" as="geometry" />
        </mxCell>
        <mxCell id="sKmxfyJHuq8jnyLTXOs7-28" value="" style="whiteSpace=wrap;html=1;fontSize=7;" vertex="1" parent="1">
          <mxGeometry x="690" y="980" width="120" height="60" as="geometry" />
        </mxCell>
      </root>
    </mxGraphModel>
  </diagram>
</mxfile>
